# xmcd
#
# Track frame offsets: 
#        182
#        29470
#        46045
#        60865
#        78375
#        88415
#        101500
#        115607
#        124630
#        137500
#        151900
#        170887
#        184532
#        203665
#        218507
#        236167
#        250957
#        264492
#        280722
#        292732
#        306122
#
# Disc length: 4270 seconds
#
# Revision: 4
# Processed by: cddbd v1.5.2PL0 Copyright (c) Steve Scherf et al.
# Submitted via: ExactAudioCopyFreeDBPlugin 1.0
#
DISCID=1610ac15
DTITLE=Ray Charles - Uh Huh:  His Greatest Hits
DYEAR=1992
DGENRE=Soul
TTITLE0=What'd I Say, Parts 1 and 2
TTITLE1=Georgia on My Mind
TTITLE2=Hardhearted Hannah
TTITLE3=Ruby
TTITLE4=Sticks and Stones
TTITLE5=Them That Got
TTITLE6=One Mint Julep
TTITLE7=Hit the Road Jack
TTITLE8=Unchain My Heart
TTITLE9=Hide Nor Hair
TTITLE10=Baby, It's Cold Outside
TTITLE11=At the Club
TTITLE12=I Can't Stop Loving You
TTITLE13=Born to Lose
TTITLE14=Careless Love
TTITLE15=You Don't Know Me
TTITLE16=You Are My Sunshine
TTITLE17=Your Cheating Heart
TTITLE18=Don't Set Me Free
TTITLE19=Take These Chains from My Heart
TTITLE20=No One
EXTD=DCC Compact Classics - Sandstone Music\nCompilation - Remastered\n
EXTD=1992
EXTT0=
EXTT1=
EXTT2=
EXTT3=
EXTT4=
EXTT5=
EXTT6=
EXTT7=
EXTT8=
EXTT9=
EXTT10=
EXTT11=
EXTT12=
EXTT13=
EXTT14=
EXTT15=
EXTT16=
EXTT17=
EXTT18=
EXTT19=
EXTT20=
PLAYORDER=
